<svg width="229px" height="20px" viewBox="0 0 229 20" version="1.1" xmlns="http://www.w3.org/2000/svg" xmlns:xlink="http://www.w3.org/1999/xlink">
    <!-- Generator: Sketch 50.2 (55047) - http://www.bohemiancoding.com/sketch -->
    <title>i-love</title>
    <desc>Created with Sketch.</desc>
    <defs></defs>
    <g id="Showcase-Website" stroke="none" stroke-width="1" fill="none" fill-rule="evenodd">
        <g id="navigation" transform="translate(-586.000000, -6.000000)" fill="#131313" fill-rule="nonzero">
            <g id="i-love" transform="translate(586.000000, 6.000000)">
                <polygon id="Shape" points="0 19.3235556 0 0.737631111 2.08898442 0.737631111 2.08898442 19.3235556"></polygon>
                <polygon id="Shape" points="17.1948779 19.3235556 17.1948779 0.737631111 21.3196589 0.737631111 21.3196589 15.59028 28.6045105 15.59028 28.6045105 19.3235556"></polygon>
                <path d="M43.1484925,3.24414222 C45.0332822,1.40536008 47.5804851,0.396726997 50.2188519,0.444444444 C52.8502394,0.391975821 55.3909799,1.40184613 57.2626329,3.24414222 C59.1684273,5.00137875 60.2305073,7.48481242 60.1820481,10.0705333 C60.2284662,12.6581647 59.1785807,15.1456973 57.2896442,16.9236133 C53.3074329,20.6212405 47.130677,20.6212405 43.1484657,16.9236133 C41.2592419,15.1458607 40.2091688,12.6582598 40.2556243,10.0705333 C40.2095325,7.49064618 41.2601741,5.01141447 43.1484925,3.24414222 Z M46.0674881,14.2838578 C47.1600619,15.3888507 48.66182,15.9965565 50.2188608,15.9637644 C51.7737618,15.9989688 53.271394,15.3792702 54.3432088,14.2571689 C55.4683515,13.1555811 56.0883038,11.6413516 56.0572894,10.0705378 C56.0854763,8.5134267 55.4764809,7.01184628 54.3702335,5.91081778 C53.2759536,4.80206303 51.7801378,4.17752683 50.2188585,4.17752683 C48.6575793,4.17752683 47.1617635,4.80206303 46.0674836,5.91081778 C44.961235,7.01184736 44.3522396,8.51342962 44.3804277,10.0705422 C44.3417831,11.6453411 44.9512545,13.1674517 46.0674881,14.2838533 L46.0674881,14.2838578 Z" id="Shape"></path>
                <polygon id="Shape" points="78.4497799 19.3235556 70.7900156 0.737631111 75.1820258 0.737631111 80.2706513 13.3237867 85.332703 0.737631111 89.7251462 0.737631111 82.091987 19.3235556"></polygon>
                <polygon id="Shape" points="102.662285 19.3235556 102.662285 0.737631111 115.410643 0.737631111 115.410643 4.47092 106.786628 4.47092 106.786628 7.96397333 114.848308 7.96397333 114.848308 11.6171867 106.786628 11.6171867 106.786628 15.5902756 115.598129 15.5902756 115.598129 19.3235556"></polygon>
                <polygon id="Shape" points="130.007822 19.3235556 130.007822 0.737631111 132.096806 0.737631111 132.096806 17.4036444 139.783586 17.4036444 139.783586 19.3235556"></polygon>
                <path d="M151.943455,19.3235556 L159.844277,0.737631111 L161.451558,0.737631111 L169.352379,19.3235556 L167.102554,19.3235556 L165.173973,14.7369778 L156.121857,14.7369778 L154.193298,19.3235556 L151.943455,19.3235556 Z M156.925263,12.8172756 L164.370535,12.8172756 L160.647701,3.96419111 L156.925263,12.8172756 Z" id="Shape"></path>
                <polygon id="Shape" points="183.46739 19.3235556 183.46739 0.737631111 185.395949 0.737631111 192.519947 12.5238533 199.644392 0.737631111 201.545891 0.737631111 201.545891 19.3235556 199.483498 19.3235556 199.483498 4.84418222 192.519952 16.2037778 185.529792 4.87088889 185.529792 19.3235556"></polygon>
                <path d="M217.188001,19.3235556 L217.188001,0.737631111 L223.160696,0.737631111 C224.675947,0.703523815 226.138519,1.29175915 227.204832,2.36415111 C228.302501,3.41412884 228.905257,4.87583681 228.865296,6.39084444 C228.900236,7.91269013 228.29886,9.38064211 227.204832,10.4440133 C226.128645,11.4984705 224.670275,12.0753895 223.160696,12.04384 L219.276981,12.04384 L219.276981,19.3235556 L217.188001,19.3235556 Z M219.276986,10.1239022 L223.080051,10.1239022 C224.067067,10.153763 225.020656,9.76625088 225.704793,9.05728 C226.418282,8.35511653 226.806433,7.38921211 226.776312,6.39083111 C226.806434,5.39238574 226.418288,4.42641344 225.704793,3.72416444 C225.020598,3.01527849 224.067049,2.62778249 223.080051,2.65754222 L219.276986,2.65754222 L219.276986,10.1239022 Z" id="Shape"></path>
            </g>
        </g>
    </g>
</svg>