<?xml version="1.0" encoding="UTF-8"?>
<svg width="10px" height="16px" viewBox="0 0 10 16" version="1.1" xmlns="http://www.w3.org/2000/svg" xmlns:xlink="http://www.w3.org/1999/xlink">
    <!-- Generator: Sketch 50.2 (55047) - http://www.bohemiancoding.com/sketch -->
    <title></title>
    <desc>Created with Sketch.</desc>
    <defs></defs>
    <g id="Showcase-Website" stroke="none" stroke-width="1" fill="none" fill-rule="evenodd">
        <g id="Slide-3" transform="translate(-1383.000000, -752.000000)" fill="#131313">
            <g id="social" transform="translate(1376.000000, 616.000000)">
                <path d="M10.2812443,151.999995 L10.2812443,144.843762 L7.875,144.843762 L7.875,142.000019 L10.2812443,142.000019 L10.2812443,139.750024 C10.2812443,138.562527 10.614577,137.640654 11.2812419,136.984406 C11.9479068,136.328158 12.8333217,136.000033 13.9374855,136.000033 C14.8333169,136.000033 15.5624817,136.0417 16.1249803,136.125033 L16.1249803,138.656277 L14.6249839,138.656277 C14.0624852,138.656277 13.6770697,138.781277 13.4687367,139.031276 C13.3020706,139.239609 13.2187373,139.572941 13.2187373,140.031274 L13.2187373,142.000019 L15.8749809,142.000019 L15.4999818,144.843762 L13.2187373,144.843762 L13.2187373,151.999995 L10.2812443,151.999995 Z" id=""></path>
            </g>
        </g>
    </g>
</svg>