<?xml version="1.0" encoding="UTF-8"?>
<svg width="17px" height="17px" viewBox="0 0 17 17" version="1.1" xmlns="http://www.w3.org/2000/svg" xmlns:xlink="http://www.w3.org/1999/xlink">
    <!-- Generator: Sketch 50.2 (55047) - http://www.bohemiancoding.com/sketch -->
    <title></title>
    <desc>Created with Sketch.</desc>
    <defs></defs>
    <g id="Showcase-Website" stroke="none" stroke-width="1" fill="none" fill-rule="evenodd">
        <g id="Slide-3" transform="translate(-1379.000000, -707.000000)" fill="#131313">
            <g id="social" transform="translate(1376.000000, 616.000000)">
                <path d="M11.4999812,95.207057 C12.2265422,95.207057 12.9003683,95.3886974 13.5214608,95.7519776 C14.1425532,96.1152578 14.6347396,96.6074441 14.9980198,97.2285365 C15.3613,97.849629 15.5429403,98.5234551 15.5429403,99.2500161 C15.5429403,99.976577 15.3613,100.650403 14.9980198,101.271496 C14.6347396,101.892588 14.1425532,102.384774 13.5214608,102.748055 C12.9003683,103.111335 12.2265422,103.292975 11.4999812,103.292975 C10.7734203,103.292975 10.0995941,103.111335 9.47850167,102.748055 C8.85740922,102.384774 8.36522289,101.892588 8.00194269,101.271496 C7.63866248,100.650403 7.45702211,99.976577 7.45702211,99.2500161 C7.45702211,98.5234551 7.63866248,97.849629 8.00194269,97.2285365 C8.36522289,96.6074441 8.85740922,96.1152578 9.47850167,95.7519776 C10.0995941,95.3886974 10.7734203,95.207057 11.4999812,95.207057 Z M11.4999812,101.886729 C12.2265422,101.886729 12.8476341,101.628917 13.363258,101.113293 C13.878882,100.597669 14.1366937,99.976577 14.1366937,99.2500161 C14.1366937,98.5234551 13.878882,97.9023632 13.363258,97.3867393 C12.8476341,96.8711153 12.2265422,96.6133036 11.4999812,96.6133036 C10.7734203,96.6133036 10.1523284,96.8711153 9.63670442,97.3867393 C9.12108047,97.9023632 8.86326876,98.5234551 8.86326876,99.2500161 C8.86326876,99.976577 9.12108047,100.597669 9.63670442,101.113293 C10.1523284,101.628917 10.7734203,101.886729 11.4999812,101.886729 Z M16.6679377,95.0312762 C16.6445,95.2890879 16.5448911,95.5117439 16.3691102,95.6992433 C16.1933294,95.8867427 15.9765329,95.9804926 15.7187212,95.9804926 C15.4609095,95.9804926 15.2382534,95.8867427 15.050754,95.6992433 C14.8632546,95.5117439 14.7695047,95.2890879 14.7695047,95.0312762 C14.7695047,94.7734644 14.8632546,94.5508084 15.050754,94.363309 C15.2382534,94.1758096 15.4609095,94.0820597 15.7187212,94.0820597 C15.9765329,94.0820597 16.1991889,94.1758096 16.3866883,94.363309 C16.5741877,94.5508084 16.6679377,94.7734644 16.6679377,95.0312762 Z M19.3398063,95.9804926 C19.3632439,96.6367413 19.3749624,97.7265824 19.3749624,99.2500161 C19.3749624,100.77345 19.3573844,101.86915 19.3222282,102.537118 C19.287072,103.205085 19.1874631,103.785162 19.0234008,104.277348 C18.8124638,104.863284 18.4901988,105.373049 18.0566062,105.806641 C17.6230137,106.240234 17.1132493,106.562499 16.527313,106.773436 C16.0351267,106.937498 15.4550499,107.037107 14.7870828,107.072263 C14.1191156,107.107419 13.0234149,107.124997 11.4999812,107.124997 C9.97654754,107.124997 8.88084684,107.107419 8.21287969,107.072263 C7.54491253,107.037107 6.96483579,106.925779 6.47264946,106.738279 C5.88671318,106.55078 5.37694877,106.240234 4.94335623,105.806641 C4.50976369,105.373049 4.18749866,104.863284 3.97656166,104.277348 C3.81249937,103.785162 3.71289042,103.205085 3.67773425,102.537118 C3.64257808,101.86915 3.625,100.77345 3.625,99.2500161 C3.625,97.7265824 3.64257808,96.6308817 3.67773425,95.9629146 C3.71289042,95.2949474 3.81249937,94.7148707 3.97656166,94.2226843 C4.18749866,93.636748 4.50976369,93.1269836 4.94335623,92.6933911 C5.37694877,92.2597986 5.88671318,91.9375335 6.47264946,91.7265965 C6.96483579,91.5625342 7.54491253,91.4629253 8.21287969,91.4277691 C8.88084684,91.392613 9.97654754,91.3750349 11.4999812,91.3750349 C13.0234149,91.3750349 14.1191156,91.392613 14.7870828,91.4277691 C15.4550499,91.4629253 16.0351267,91.5625342 16.527313,91.7265965 C17.1132493,91.9375335 17.6230137,92.2597986 18.0566062,92.6933911 C18.4901988,93.1269836 18.8124638,93.636748 19.0234008,94.2226843 C19.1874631,94.7148707 19.2929316,95.3008069 19.3398063,95.9804926 Z M17.6523103,103.89063 C17.792935,103.492194 17.8866849,102.859383 17.9335596,101.992197 C17.9569973,101.476573 17.9687158,100.750013 17.9687158,99.8125148 L17.9687158,98.6875174 C17.9687158,97.7265824 17.9569973,97.0000215 17.9335596,96.5078351 C17.8866849,95.6172124 17.792935,94.9844014 17.6523103,94.6094022 C17.371061,93.8828412 16.8671561,93.3789363 16.1405952,93.097687 C15.7655959,92.9570623 15.1327849,92.8633124 14.2421622,92.8164377 C13.7265382,92.7930001 12.9999778,92.7812815 12.0624799,92.7812815 L10.9374826,92.7812815 C9.99998462,92.7812815 9.27342421,92.7930001 8.75780026,92.8164377 C7.89061465,92.8633124 7.25780366,92.9570623 6.85936729,93.097687 C6.13280634,93.3789363 5.62890147,93.8828412 5.34765214,94.6094022 C5.20702748,94.9844014 5.11327752,95.6172124 5.06640281,96.5078351 C5.04296519,97.0234591 5.03124665,97.7500195 5.03124665,98.6875174 L5.03124665,99.8125148 C5.03124665,100.750013 5.04296519,101.476573 5.06640281,101.992197 C5.11327752,102.859383 5.20702748,103.492194 5.34765214,103.89063 C5.6523391,104.617191 6.15624397,105.121096 6.85936729,105.402345 C7.25780366,105.54297 7.89061465,105.63672 8.75780026,105.683595 C9.27342421,105.707032 9.99998462,105.718751 10.9374826,105.718751 L12.0624799,105.718751 C13.0234149,105.718751 13.7499759,105.707032 14.2421622,105.683595 C15.1327849,105.63672 15.7655959,105.54297 16.1405952,105.402345 C16.8671561,105.097658 17.371061,104.593753 17.6523103,103.89063 Z" id=""></path>
            </g>
        </g>
    </g>
</svg>