<?xml version="1.0" encoding="UTF-8"?>
<svg width="17px" height="14px" viewBox="0 0 17 14" version="1.1" xmlns="http://www.w3.org/2000/svg" xmlns:xlink="http://www.w3.org/1999/xlink">
    <!-- Generator: Sketch 50.2 (55047) - http://www.bohemiancoding.com/sketch -->
    <title></title>
    <desc>Created with Sketch.</desc>
    <defs></defs>
    <g id="Showcase-Website" stroke="none" stroke-width="1" fill="none" fill-rule="evenodd">
        <g id="Slide-3" transform="translate(-1379.000000, -797.000000)" fill="#131313">
            <g id="social" transform="translate(1376.000000, 616.000000)">
                <path d="M17.8437158,184.750022 C17.8645492,184.833355 17.8749657,184.968772 17.8749657,185.156271 C17.8749657,186.656268 17.5103831,188.104181 16.7812183,189.500011 C16.0312201,190.979174 14.9791391,192.156254 13.6249759,193.031252 C12.1458129,194.010416 10.4478999,194.499999 8.531238,194.499999 C6.69790888,194.499999 5.02082987,194.010416 3.5,193.031252 C3.72916596,193.052086 3.98958233,193.062502 4.28124814,193.062502 C5.802078,193.062502 7.16665777,192.593753 8.37498838,191.656256 C7.64582361,191.656256 7.00520014,191.442715 6.45311796,191.015632 C5.90103578,190.58855 5.52082867,190.052093 5.31249568,189.406261 C5.52082867,189.427094 5.71874471,189.437511 5.90624426,189.437511 C6.19791008,189.437511 6.48957636,189.406261 6.78124218,189.343761 C6.03124397,189.177095 5.40624546,188.791679 4.90624665,188.187514 C4.40624784,187.583349 4.15624844,186.89585 4.15624844,186.125019 L4.15624844,186.062519 C4.61458083,186.333352 5.10416268,186.479184 5.62499493,186.500018 C5.18749598,186.187519 4.83333031,185.791686 4.56249747,185.312521 C4.29166462,184.833355 4.15624844,184.307315 4.15624844,183.734399 C4.15624844,183.161484 4.31249806,182.614611 4.62499732,182.093778 C5.43749538,183.114609 6.43228452,183.927108 7.6093652,184.531273 C8.78644589,185.135438 10.0416509,185.46877 11.3749812,185.53127 C11.3333148,185.281271 11.3124814,185.031271 11.3124814,184.781272 C11.3124814,184.19794 11.4583145,183.651066 11.7499803,183.140651 C12.0416461,182.630236 12.4374787,182.229195 12.9374775,181.937529 C13.4374763,181.645863 13.9791415,181.50003 14.5624736,181.50003 C15.041639,181.50003 15.4843464,181.59378 15.8905955,181.781279 C16.2968445,181.968779 16.6562186,182.218778 16.9687179,182.531277 C17.7187161,182.385444 18.4166309,182.125028 19.0624629,181.750029 C18.8124635,182.520861 18.3332981,183.125026 17.6249663,183.562525 C18.2499648,183.479192 18.8749633,183.302109 19.4999619,183.031276 C19.0416295,183.697941 18.4895478,184.270857 17.8437158,184.750022 Z" id=""></path>
            </g>
        </g>
    </g>
</svg>