<?xml version="1.0" encoding="UTF-8"?>
<svg width="117px" height="15px" viewBox="0 0 117 15" version="1.1" xmlns="http://www.w3.org/2000/svg" xmlns:xlink="http://www.w3.org/1999/xlink">
    <!-- Generator: Sketch 50.2 (55047) - http://www.bohemiancoding.com/sketch -->
    <title>Group</title>
    <desc>Created with Sketch.</desc>
    <defs></defs>
    <g id="Showcase-Website" stroke="none" stroke-width="1" fill="none" fill-rule="evenodd">
        <g id="Slide-3---Mobile" transform="translate(-129.000000, -32.000000)" fill="#131313" fill-rule="nonzero">
            <g id="header" transform="translate(24.000000, 32.000000)">
                <g id="ill-short-white" transform="translate(105.000000, 0.000000)">
                    <g id="Group">
                        <polygon id="Shape" points="0.0680232558 14.7272727 0.0680232558 0.477272727 1.66656977 0.477272727 1.66656977 14.7272727 0.0680232558 14.7272727"></polygon>
                        <polygon id="Shape" points="41.6302326 14.7272727 41.6302326 0.477272727 43.2287791 0.477272727 43.2287791 13.2613636 49.0787791 13.2613636 49.0787791 14.7272727 41.6302326 14.7272727"></polygon>
                        <path d="M58.3299419,14.7272727 L64.35,0.477272727 L65.5744186,0.477272727 L71.5944767,14.7272727 L69.8938953,14.7272727 L68.4313953,11.2159091 L61.5270349,11.2159091 L60.0645349,14.7272727 L58.3299419,14.7272727 Z M62.1392442,9.75 L67.819186,9.75 L64.9622093,2.96590909 L62.1392442,9.75 Z" id="Shape"></path>
                        <polygon id="Shape" points="82.3421512 14.7272727 82.3421512 0.477272727 83.8046512 0.477272727 89.2465116 9.51136364 94.6883721 0.477272727 96.1508721 0.477272727 96.1508721 14.7272727 94.5523256 14.7272727 94.5523256 3.64772727 89.2465116 12.375 83.906686 3.68181818 83.906686 14.7613636 82.3421512 14.7613636"></polygon>
                        <path d="M108.054942,14.7272727 L108.054942,0.477272727 L112.6125,0.477272727 C113.802907,0.477272727 114.857267,0.886363636 115.707558,1.73863636 C116.557849,2.55681818 116.965988,3.57954545 116.965988,4.84090909 C116.965988,6.10227273 116.523837,7.125 115.707558,7.94318182 C114.857267,8.76136364 113.836919,9.17045455 112.6125,9.17045455 L109.653488,9.17045455 L109.653488,14.7613636 L108.054942,14.7613636 L108.054942,14.7272727 Z M109.653488,7.67045455 L112.544477,7.67045455 C113.326744,7.67045455 114.006977,7.39772727 114.551163,6.85227273 C115.095349,6.30681818 115.367442,5.625 115.367442,4.80681818 C115.367442,3.98863636 115.095349,3.30681818 114.551163,2.76136364 C114.006977,2.21590909 113.360756,1.94318182 112.544477,1.94318182 L109.653488,1.94318182 L109.653488,7.67045455 Z" id="Shape"></path>
                        <path d="M29.9642442,4.53409091 C29.9642442,5.625 29.5561047,6.71590909 28.705814,7.53409091 L21.5633721,14.6931818 L14.4209302,7.53409091 C12.7543605,5.86363636 12.7543605,3.17045455 14.4209302,1.5 C15.2372093,0.681818182 16.3255814,0.238636364 17.4479651,0.238636364 C18.5363372,0.238636364 19.6247093,0.647727273 20.4409884,1.5 L21.5633721,2.625 L22.6857558,1.5 C24.3523256,-0.170454545 27.0392442,-0.170454545 28.705814,1.5 C29.522093,2.35227273 29.9642442,3.44318182 29.9642442,4.53409091 Z" id="Shape"></path>
                    </g>
                </g>
            </g>
        </g>
    </g>
</svg>